<svg width="19" height="11" viewBox="0 0 19 11" fill="none" xmlns="http://www.w3.org/2000/svg">
    <path d="M17.8125 1.875H0.9375C0.68886 1.875 0.450403 1.77623 0.274587 1.60041C0.0987721 1.4246 0 1.18614 0 0.9375C0 0.68886 0.0987721 0.450403 0.274587 0.274587C0.450403 0.0987719 0.68886 0 0.9375 0H17.8125C18.0611 0 18.2996 0.0987719 18.4754 0.274587C18.6512 0.450403 18.75 0.68886 18.75 0.9375C18.75 1.18614 18.6512 1.4246 18.4754 1.60041C18.2996 1.77623 18.0611 1.875 17.8125 1.875ZM14.6875 6.25H4.0625C3.81386 6.25 3.5754 6.15123 3.39959 5.97541C3.22377 5.7996 3.125 5.56114 3.125 5.3125C3.125 5.06386 3.22377 4.8254 3.39959 4.64959C3.5754 4.47377 3.81386 4.375 4.0625 4.375H14.6875C14.9361 4.375 15.1746 4.47377 15.3504 4.64959C15.5262 4.8254 15.625 5.06386 15.625 5.3125C15.625 5.56114 15.5262 5.7996 15.3504 5.97541C15.1746 6.15123 14.9361 6.25 14.6875 6.25ZM10.9375 10.625H7.8125C7.56386 10.625 7.3254 10.5262 7.14959 10.3504C6.97377 10.1746 6.875 9.93614 6.875 9.6875C6.875 9.43886 6.97377 9.2004 7.14959 9.02459C7.3254 8.84877 7.56386 8.75 7.8125 8.75H10.9375C11.1861 8.75 11.4246 8.84877 11.6004 9.02459C11.7762 9.2004 11.875 9.43886 11.875 9.6875C11.875 9.93614 11.7762 10.1746 11.6004 10.3504C11.4246 10.5262 11.1861 10.625 10.9375 10.625Z" fill="white"/>
    </svg>
    