<svg width="20" height="20" viewBox="0 0 20 20" fill="none" xmlns="http://www.w3.org/2000/svg">
    <path d="M15.95 10.7833C15.9833 10.5333 16 10.275 16 10C16 9.73333 15.9833 9.46667 15.9417 9.21667L17.6333 7.9C17.7062 7.83991 17.756 7.75641 17.7743 7.66372C17.7925 7.57103 17.778 7.47488 17.7333 7.39166L16.1333 4.625C16.0862 4.5413 16.011 4.47698 15.921 4.44342C15.831 4.40987 15.7321 4.40924 15.6417 4.44166L13.65 5.24167C13.2333 4.925 12.7917 4.65833 12.3 4.45833L12 2.34167C11.9852 2.24627 11.9368 2.15934 11.8634 2.09665C11.79 2.03395 11.6965 1.99966 11.6 2H8.4C8.2 2 8.04167 2.14167 8.00833 2.34167L7.70833 4.45833C7.21667 4.65833 6.76667 4.93333 6.35833 5.24167L4.36667 4.44166C4.18333 4.375 3.975 4.44167 3.875 4.625L2.28333 7.39166C2.18333 7.56667 2.21667 7.78333 2.38333 7.9L4.075 9.21667C4.03333 9.46667 4 9.74167 4 10C4 10.2583 4.01667 10.5333 4.05833 10.7833L2.36667 12.1C2.29377 12.1601 2.24396 12.2436 2.22573 12.3363C2.20749 12.429 2.22196 12.5251 2.26667 12.6083L3.86667 15.375C3.96667 15.5583 4.175 15.6167 4.35833 15.5583L6.35 14.7583C6.76667 15.075 7.20833 15.3417 7.7 15.5417L8 17.6583C8.04167 17.8583 8.2 18 8.4 18H11.6C11.8 18 11.9667 17.8583 11.9917 17.6583L12.2917 15.5417C12.7833 15.3417 13.2333 15.075 13.6417 14.7583L15.6333 15.5583C15.8167 15.625 16.025 15.5583 16.125 15.375L17.725 12.6083C17.825 12.425 17.7833 12.2167 17.625 12.1L15.95 10.7833ZM10 13C8.35 13 7 11.65 7 10C7 8.35 8.35 7 10 7C11.65 7 13 8.35 13 10C13 11.65 11.65 13 10 13Z" fill="url(#paint0_radial_100_985)"/>
    <defs>
    <radialGradient id="paint0_radial_100_985" cx="0" cy="0" r="1" gradientUnits="userSpaceOnUse" gradientTransform="translate(11.5 10) rotate(154.056) scale(8.26295 8.03774)">
    <stop offset="0.0630207" stop-color="#EAEBEC"/>
    <stop offset="0.877345" stop-color="#858586"/>
    </radialGradient>
    </defs>
    </svg>
    