<svg width="48" height="48" viewBox="0 0 48 48" fill="none" xmlns="http://www.w3.org/2000/svg">
    <circle cx="24" cy="24" r="22" fill="#1D2027" stroke="#14161B" stroke-width="4"/>
    <path d="M18.1417 25.0167C18.2589 24.8996 18.4177 24.8339 18.5833 24.8339C18.749 24.8339 18.9078 24.8996 19.025 25.0167L23.1667 29.1583V17.125C23.1667 16.9592 23.2325 16.8003 23.3497 16.6831C23.4669 16.5658 23.6259 16.5 23.7917 16.5C23.9574 16.5 24.1164 16.5658 24.2336 16.6831C24.3508 16.8003 24.4167 16.9592 24.4167 17.125V29.1583L28.5583 25.0167C28.6347 24.9344 28.7319 24.8743 28.8396 24.8426C28.9473 24.8109 29.0616 24.8089 29.1703 24.8367C29.2791 24.8645 29.3784 24.9211 29.4576 25.0006C29.5369 25.0801 29.5933 25.1795 29.6208 25.2883C29.6486 25.397 29.6466 25.5111 29.6151 25.6187C29.5836 25.7263 29.5237 25.8235 29.4417 25.9L24.2333 31.1083C24.1161 31.2254 23.9573 31.2911 23.7917 31.2911C23.626 31.2911 23.4672 31.2254 23.35 31.1083L18.1417 25.9C18.0246 25.7828 17.9589 25.624 17.9589 25.4583C17.9589 25.2927 18.0246 25.1339 18.1417 25.0167Z" fill="#EAEBEC"/>
    </svg>
    