<svg width="16" height="16" viewBox="0 0 16 16" fill="none" xmlns="http://www.w3.org/2000/svg">
    <g clip-path="url(#clip0_147_3089)">
    <path d="M16 1.94839C15.4009 2.27354 14.7654 2.48694 14.1146 2.5815C14.7924 2.08389 15.3129 1.29591 15.5579 0.357036C14.9136 0.825365 14.2086 1.15535 13.4735 1.33273C12.8747 0.551333 12.0216 0.0629883 11.0774 0.0629883C9.26456 0.0629883 7.79475 1.86326 7.79475 4.08366C7.79475 4.39884 7.82381 4.70567 7.87975 5.00002C5.15162 4.83229 2.73287 3.2316 1.11381 0.798988C0.831312 1.39283 0.669438 2.08358 0.669438 2.82035C0.669438 4.21533 1.249 5.44595 2.12975 6.16703C1.60846 6.14706 1.09864 5.97461 0.642875 5.66406C0.642708 5.6809 0.642646 5.69777 0.642687 5.71466C0.642687 7.66276 1.77419 9.28787 3.27581 9.65725C2.79243 9.81825 2.28539 9.84182 1.79344 9.72615C2.21112 11.3235 3.42344 12.486 4.85981 12.5185C3.73638 13.5968 2.32094 14.2397 0.783063 14.2397C0.518063 14.2397 0.256813 14.2206 0 14.1835C1.45269 15.3243 3.17813 15.99 5.03188 15.99C11.0698 15.99 14.3715 9.86318 14.3715 4.54995C14.3715 4.37556 14.3683 4.20217 14.362 4.02976C15.0046 3.46065 15.5593 2.75585 16 1.94839Z" fill="#55ACEE"/>
    </g>
    <defs>
    <clipPath id="clip0_147_3089">
    <rect width="16" height="16" fill="white"/>
    </clipPath>
    </defs>
    </svg>
    